<svg width="0" height="0" class="hidden">
  <symbol fill="none" xmlns="http://www.w3.org/2000/svg" viewBox="0 0 24 24" id="search">
    <path fill-rule="evenodd" clip-rule="evenodd" d="M10.5 18C6.35786 18 3 14.6421 3 10.5C3 6.35786 6.35786 3 10.5 3C14.6421 3 18 6.35786 18 10.5C18 12.205 17.4311 13.7771 16.4727 15.0368L20.842 19.2829L19.4481 20.7171L15.0613 16.454C13.7975 17.4237 12.216 18 10.5 18ZM16 10.5C16 13.5376 13.5376 16 10.5 16C7.46243 16 5 13.5376 5 10.5C5 7.46243 7.46243 5 10.5 5C13.5376 5 16 7.46243 16 10.5Z" fill="#545454"></path>
  </symbol>
  <symbol fill="none" xmlns="http://www.w3.org/2000/svg" viewBox="0 0 18 18" id="line">
    <path fill-rule="evenodd" clip-rule="evenodd" d="M4.5 3C3.67157 3 3 3.67157 3 4.5C3 5.32843 3.67157 6 4.5 6C5.32843 6 6 5.32843 6 4.5C6 3.67157 5.32843 3 4.5 3ZM1.5 4.5C1.5 2.84315 2.84315 1.5 4.5 1.5C6.15685 1.5 7.5 2.84315 7.5 4.5C7.5 5.89788 6.54392 7.07245 5.25 7.40549V15.75C5.25 16.1642 4.91421 16.5 4.5 16.5C4.08579 16.5 3.75 16.1642 3.75 15.75V7.40549C2.45608 7.07245 1.5 5.89788 1.5 4.5ZM9 4.5C9 4.08579 9.33579 3.75 9.75 3.75H12C12.5967 3.75 13.169 3.98705 13.591 4.40901C14.0129 4.83097 14.25 5.40326 14.25 6V10.5945C15.5439 10.9275 16.5 12.1021 16.5 13.5C16.5 15.1569 15.1569 16.5 13.5 16.5C11.8431 16.5 10.5 15.1569 10.5 13.5C10.5 12.1021 11.4561 10.9275 12.75 10.5945V6C12.75 5.80109 12.671 5.61032 12.5303 5.46967C12.3897 5.32902 12.1989 5.25 12 5.25H9.75C9.33579 5.25 9 4.91421 9 4.5ZM13.5 12C12.6716 12 12 12.6716 12 13.5C12 14.3284 12.6716 15 13.5 15C14.3284 15 15 14.3284 15 13.5C15 12.6716 14.3284 12 13.5 12Z" fill="#141414"></path>
  </symbol>
  <symbol fill="none" xmlns="http://www.w3.org/2000/svg" viewBox="0 0 18 18" id="flow">
    <path fill-rule="evenodd" clip-rule="evenodd" d="M14.25 2.25C13.8358 2.25 13.5 2.58579 13.5 3C13.5 3.41421 13.8358 3.75 14.25 3.75C14.6642 3.75 15 3.41421 15 3C15 2.58579 14.6642 2.25 14.25 2.25ZM12.1278 2.25054C12.4366 1.37636 13.2701 0.75 14.25 0.75C15.4926 0.75 16.5 1.75736 16.5 3C16.5 4.24264 15.4926 5.25 14.25 5.25C13.2706 5.25 12.4373 4.62419 12.1283 3.75062C11.7319 3.75223 11.4309 3.75793 11.1833 3.77816C10.8545 3.80503 10.6863 3.85372 10.569 3.91349C10.2868 4.0573 10.0573 4.28677 9.91349 4.56901C9.85372 4.68631 9.80503 4.85447 9.77816 5.18328C9.75058 5.52085 9.75 5.95757 9.75 6.6V8.25H12.128C12.4369 7.37611 13.2703 6.75 14.25 6.75C15.4926 6.75 16.5 7.75736 16.5 9C16.5 10.2426 15.4926 11.25 14.25 11.25C13.2703 11.25 12.4369 10.6239 12.128 9.75H9.75V11.4C9.75 12.0424 9.75058 12.4792 9.77816 12.8167C9.80503 13.1455 9.85372 13.3137 9.91349 13.431C10.0573 13.7132 10.2868 13.9427 10.569 14.0865C10.6863 14.1463 10.8545 14.195 11.1833 14.2218C11.4309 14.2421 11.7319 14.2478 12.1283 14.2494C12.4373 13.3758 13.2706 12.75 14.25 12.75C15.4926 12.75 16.5 13.7574 16.5 15C16.5 16.2426 15.4926 17.25 14.25 17.25C13.2701 17.25 12.4366 16.6236 12.1278 15.7495C11.7174 15.7479 11.3636 15.7416 11.0611 15.7169C10.6396 15.6824 10.252 15.6085 9.88803 15.423C9.32354 15.1354 8.8646 14.6765 8.57698 14.112C8.39151 13.748 8.31759 13.3604 8.28314 12.9389C8.24998 12.533 8.24999 12.0347 8.25 11.431V9.75H5.87197C5.56309 10.6239 4.72966 11.25 3.75 11.25C2.50736 11.25 1.5 10.2426 1.5 9C1.5 7.75736 2.50736 6.75 3.75 6.75C4.72966 6.75 5.56309 7.37611 5.87197 8.25H8.25V6.56903C8.24999 5.9653 8.24998 5.46703 8.28314 5.06113C8.31759 4.63956 8.39151 4.25203 8.57698 3.88803C8.8646 3.32354 9.32354 2.8646 9.88803 2.57698C10.252 2.39151 10.6396 2.31759 11.0611 2.28315C11.3636 2.25843 11.7174 2.25214 12.1278 2.25054ZM3.75 8.25C3.33579 8.25 3 8.58579 3 9C3 9.41421 3.33579 9.75 3.75 9.75C4.16421 9.75 4.5 9.41421 4.5 9C4.5 8.58579 4.16421 8.25 3.75 8.25ZM14.25 8.25C13.8358 8.25 13.5 8.58579 13.5 9C13.5 9.41421 13.8358 9.75 14.25 9.75C14.6642 9.75 15 9.41421 15 9C15 8.58579 14.6642 8.25 14.25 8.25ZM14.25 14.25C13.8358 14.25 13.5 14.5858 13.5 15C13.5 15.4142 13.8358 15.75 14.25 15.75C14.6642 15.75 15 15.4142 15 15C15 14.5858 14.6642 14.25 14.25 14.25Z" fill="#141414"></path>
  </symbol>
  <symbol fill="none" xmlns="http://www.w3.org/2000/svg" viewBox="0 0 18 18" id="stars">
    <path fill-rule="evenodd" clip-rule="evenodd" d="M8.1487 1.55496C8.48378 0.828521 9.51623 0.828521 9.85131 1.55496L11.6212 5.39216L15.8176 5.8897C16.612 5.98389 16.931 6.96582 16.3437 7.50898L13.2412 10.378L14.0648 14.5227C14.2207 15.3074 13.3854 15.9142 12.6874 15.5235L9 13.4595L5.31265 15.5235C4.61458 15.9142 3.77931 15.3074 3.93522 14.5227L4.75876 10.378L1.65631 7.50898C1.06897 6.96582 1.38801 5.98389 2.18245 5.8897L6.37877 5.39216L8.1487 1.55496ZM9 3.29061L7.60898 6.30634C7.47242 6.60241 7.19184 6.80626 6.86806 6.84465L3.57007 7.23568L6.00836 9.49054C6.24773 9.71191 6.35491 10.0417 6.29136 10.3615L5.64412 13.6189L8.54209 11.9968C8.8266 11.8375 9.17341 11.8375 9.45792 11.9968L12.3559 13.6189L11.7086 10.3615C11.6451 10.0417 11.7523 9.71191 11.9916 9.49054L14.4299 7.23568L11.1319 6.84465C10.8082 6.80626 10.5276 6.60241 10.391 6.30634L9 3.29061Z" fill="#141414"></path>
  </symbol>
  <symbol fill="none" xmlns="http://www.w3.org/2000/svg" viewBox="0 0 18 18" id="open">
    <path fill-rule="evenodd" clip-rule="evenodd" d="M13.1894 3.74994L6.96967 9.96967L8.03033 11.0303L14.25 4.81066V7.49994H15.75V2.99994C15.75 2.58573 15.4142 2.24994 15 2.24994H10.5V3.74994H13.1894ZM13.5 9V12C13.5 12.8284 12.8284 13.5 12 13.5H6C5.17157 13.5 4.5 12.8284 4.5 12V6C4.5 5.17157 5.17157 4.5 6 4.5H9V3H6C4.34315 3 3 4.34314 3 6V12C3 13.6568 4.34315 15 6 15H12C13.6569 15 15 13.6568 15 12V9H13.5Z" fill="#141414"></path>
  </symbol>
    <symbol fill="none" xmlns="http://www.w3.org/2000/svg" viewBox="0 0 24 24" id="filter">
      <path fill-rule="evenodd" clip-rule="evenodd" d="M2 6V8H22V6H2ZM4 13V11H20V13H4ZM6 18V16H18V18H6Z" fill="#141414"></path>
    </symbol>
</svg>
